<?xml version="1.0" encoding="UTF-8"?>
<mxfile host="Electron" agent="draw.io/28.0.6" version="28.0.6">
  <diagram id="ac_schematic_r03" name="H100 Camper - AC Schematic (R0.3)">
    <mxGraphModel dx="1200" dy="780" grid="1" gridSize="12" guides="1" tooltips="1" connect="1" arrows="0" fold="1" page="1" pageScale="1" pageWidth="1191" pageHeight="842" background="#ffffff" math="0" shadow="0">
      <root>
        <mxCell id="0"/><mxCell id="1" parent="0"/>
        <mxCell id="layer_wiring" value="Wiring" parent="1" layer="1"/>
        <mxCell id="layer_labels" value="Labels" parent="1" layer="1"/>

        <mxCell id="title" value="H100 Camper - AC Schematic" style="text;html=1;align=center;verticalAlign=middle;fontSize=16;fontStyle=1;strokeColor=none;fillColor=none;" parent="layer_labels" vertex="1"><mxGeometry x="430" y="30" width="330" height="30" as="geometry"/></mxCell>
        <mxCell id="rev" value="Revision: R0.3  Date: 2025-08-16" style="text;html=1;align=left;verticalAlign=middle;fontSize=10;strokeColor=none;fillColor=none;" parent="layer_labels" vertex="1"><mxGeometry x="940" y="790" width="220" height="20" as="geometry"/></mxCell>

        <mxCell id="shore" value="Shore Inlet 230V 16A (optional)" style="rounded=1;whiteSpace=wrap;html=1;strokeColor=#666;fillColor=#f5f5f5;fontSize=10;" parent="layer_wiring" vertex="1"><mxGeometry x="120" y="120" width="160" height="40" as="geometry"/></mxCell>
        <mxCell id="rcd" value="RCD/MCB 16A" style="rounded=1;whiteSpace=wrap;html=1;strokeColor=#000;fillColor=#fff;fontSize=10;" parent="layer_wiring" vertex="1"><mxGeometry x="300" y="120" width="120" height="40" as="geometry"/></mxCell>
        <mxCell id="inverter" value="Victron MultiPlus 12/2000" style="rounded=1;whiteSpace=wrap;html=1;strokeColor=#000;fillColor=#fff;fontSize=10;" parent="layer_wiring" vertex="1"><mxGeometry x="460" y="110" width="170" height="60" as="geometry"/></mxCell>
        <mxCell id="ac_panel" value="AC Distribution" style="rounded=1;whiteSpace=wrap;html=1;strokeColor=#000;fillColor=#fff;fontSize=10;" parent="layer_wiring" vertex="1"><mxGeometry x="680" y="120" width="140" height="40" as="geometry"/></mxCell>

        <mxCell id="shore_to_rcd" style="edgeStyle=orthogonalEdgeStyle;orthogonalRouting=1;dashed=1;endArrow=none;strokeColor=#333;strokeWidth=1.5;" parent="layer_wiring" source="shore" target="rcd" edge="1"><mxGeometry relative="1" as="geometry"/></mxCell>
        <mxCell id="rcd_to_inv" style="edgeStyle=orthogonalEdgeStyle;orthogonalRouting=1;endArrow=none;strokeColor=#333;strokeWidth=1.5;" parent="layer_wiring" source="rcd" target="inverter" edge="1"><mxGeometry relative="1" as="geometry"/></mxCell>
        <mxCell id="inv_to_panel" style="edgeStyle=orthogonalEdgeStyle;orthogonalRouting=1;endArrow=none;strokeColor=#333;strokeWidth=1.5;" parent="layer_wiring" source="inverter" target="ac_panel" edge="1"><mxGeometry relative="1" as="geometry"/></mxCell>

        <mxCell id="legend" value="Legend: Dashed = optional shore. Inverter feeds AC Distribution via RCD/MCB as required by local code." style="text;html=1;align=left;verticalAlign=top;fontSize=10;strokeColor=none;fillColor=none;" parent="layer_labels" vertex="1"><mxGeometry x="120" y="200" width="700" height="40" as="geometry"/></mxCell>
      </root>
    </mxGraphModel>
  </diagram>
</mxfile>
